<svg width="128" height="128" viewBox="0 0 128 128" fill="none" xmlns="http://www.w3.org/2000/svg">
<circle cx="64" cy="64" r="64" fill="#EB5757"/>
<path fill-rule="evenodd" clip-rule="evenodd" d="M56.0841 10.6392C58.9564 7.78692 63.6062 7.78692 66.4785 10.6392C69.3605 13.5012 69.3605 18.1486 66.4785 21.0105L37.1843 50.1004L66.4785 79.1904C69.3605 82.0523 69.3605 86.6997 66.4785 89.5616C63.6061 92.4139 58.9564 92.4139 56.084 89.5616L21.7277 55.4447C18.7574 52.4952 18.7574 47.7057 21.7277 44.7561L56.0841 10.6392ZM65.6947 45.0616C68.4263 42.3459 72.849 42.3459 75.5806 45.0616L107.384 76.6806C110.205 79.4855 110.205 84.0393 107.384 86.8443L75.5806 118.463C72.8491 121.179 68.4263 121.179 65.6947 118.463C62.9551 115.739 62.9551 111.317 65.6947 108.594L92.6824 81.7624L65.6947 54.9312C62.9551 52.2075 62.9551 47.7854 65.6947 45.0616Z" fill="#F2F2F2"/>
</svg>
