<svg width="128" height="128" viewBox="0 0 128 128" fill="none" xmlns="http://www.w3.org/2000/svg">
<circle cx="64" cy="64" r="64" fill="#FE7F0F"/>
<path fill-rule="evenodd" clip-rule="evenodd" d="M62.9553 14.1871C62.0328 13.271 60.5298 13.271 59.6072 14.1871L25.2509 48.304C24.2497 49.2981 24.2497 50.9027 25.2509 51.8969L59.6072 86.0137C60.5298 86.9299 62.0327 86.9299 62.9553 86.0137C63.8682 85.1072 63.8682 83.6448 62.9553 82.7382L30.0884 50.1004L62.9553 17.4626C63.8682 16.5561 63.8682 15.0936 62.9553 14.1871ZM56.0841 10.6392C58.9564 7.78692 63.6062 7.78692 66.4785 10.6392C69.3605 13.5012 69.3605 18.1486 66.4785 21.0105L37.1843 50.1004L66.4785 79.1904C69.3605 82.0523 69.3605 86.6997 66.4785 89.5616C63.6061 92.4139 58.9564 92.4139 56.084 89.5616L21.7277 55.4447C18.7574 52.4952 18.7574 47.7057 21.7277 44.7561L56.0841 10.6392ZM65.6947 45.0616C68.4263 42.3459 72.849 42.3459 75.5806 45.0616L107.384 76.6806C110.205 79.4855 110.205 84.0393 107.384 86.8443L75.5806 118.463C72.8491 121.179 68.4263 121.179 65.6947 118.463C62.9551 115.739 62.9551 111.317 65.6947 108.594L92.6824 81.7624L65.6947 54.9312C62.9551 52.2075 62.9551 47.7854 65.6947 45.0616ZM72.0554 48.6074C71.2741 47.8306 70.0013 47.8306 69.2199 48.6074C68.4467 49.3762 68.4467 50.6166 69.2199 51.3854L99.7742 81.7624L69.22 112.139C68.4467 112.908 68.4467 114.149 69.22 114.917C70.0013 115.694 71.2741 115.694 72.0554 114.917L103.859 83.2985C104.714 82.4485 104.714 81.0764 103.859 80.2264L72.0554 48.6074Z" fill="#F2F2F2"/>
<path d="M59.6072 14.1871C60.5298 13.271 62.0328 13.271 62.9553 14.1871C63.8682 15.0936 63.8682 16.5561 62.9553 17.4626L30.0884 50.1004L62.9553 82.7382C63.8682 83.6448 63.8682 85.1072 62.9553 86.0137C62.0327 86.9299 60.5298 86.9299 59.6072 86.0137L25.2509 51.8969C24.2497 50.9027 24.2497 49.2981 25.2509 48.304L59.6072 14.1871Z" fill="#F2F2F2"/>
<path d="M69.2199 48.6074C70.0013 47.8306 71.2741 47.8306 72.0554 48.6074L103.859 80.2264C104.714 81.0764 104.714 82.4485 103.859 83.2985L72.0554 114.917C71.2741 115.694 70.0013 115.694 69.22 114.917C68.4467 114.149 68.4467 112.908 69.22 112.139L99.7742 81.7624L69.2199 51.3854C68.4467 50.6166 68.4467 49.3762 69.2199 48.6074Z" fill="#F2F2F2"/>
</svg>
