<svg width="981" height="854" viewBox="0 0 981 854" fill="none" xmlns="http://www.w3.org/2000/svg">
<path d="M473.18 9.99996C480.878 -3.33337 500.123 -3.33334 507.821 10L977.639 823.75C985.337 837.083 975.715 853.75 960.319 853.75H20.6812C5.28516 853.75 -4.33731 837.083 3.3607 823.75L473.18 9.99996Z" fill="#FE7F0F"/>
<path fill-rule="evenodd" clip-rule="evenodd" d="M504.297 448.297C512.693 439.901 526.307 439.901 534.703 448.297L686.731 600.325C695.518 609.112 695.518 623.358 686.731 632.145L534.703 784.173C526.307 792.569 512.694 792.569 504.297 784.173C495.901 775.777 495.901 762.164 504.297 753.767L641.829 616.235L504.297 478.703C495.901 470.307 495.901 456.693 504.297 448.297Z" fill="#F2F2F2"/>
<path fill-rule="evenodd" clip-rule="evenodd" d="M491.197 282.795C482.127 273.735 467.421 273.735 458.351 282.795L294.119 446.833C284.627 456.314 284.627 471.686 294.119 481.167L458.351 645.205C467.421 654.265 482.127 654.265 491.197 645.205C500.268 636.146 500.268 621.457 491.197 612.398L342.625 464L491.197 315.602C500.268 306.543 500.268 291.854 491.197 282.795Z" fill="#F2F2F2"/>
</svg>
