<svg width="100%" height="100%" viewBox="0 0 632 478" fill="none" xmlns="http://www.w3.org/2000/svg">
<g clip-path="url(#clip0)">
<path d="M364.203 23.7157C369.624 35.2501 358.137 38.5172 344.979 44.6995C331.82 50.8818 321.973 57.6382 316.552 46.1038C311.131 34.5694 306.732 11.6757 325.347 2.92977C344.604 -6.11745 358.782 12.1813 364.203 23.7157Z" fill="#2F2E41"/>
<path d="M337.356 46.3993C347.14 46.3993 355.07 38.4696 355.07 28.6879C355.07 18.9061 347.14 10.9765 337.356 10.9765C327.573 10.9765 319.642 18.9061 319.642 28.6879C319.642 38.4696 327.573 46.3993 337.356 46.3993Z" fill="#FFB8B8"/>
<path d="M425.116 107.234C424.503 106.434 423.89 105.648 423.27 104.884C422.469 103.888 421.664 102.924 420.854 101.992C411.672 91.3986 401.907 84.7283 391.153 84.0144H391.139L390.98 83.9999L369.552 104.884L362.268 111.979L362.426 112.369L366.357 122.154H435.228C432.125 117.005 428.749 112.025 425.116 107.234Z" fill="#2F2E41"/>
<path d="M318.093 35.8185L324.434 32.8392L323.551 23.693L327.791 31.262L330.822 29.8381L330.307 24.5028L332.78 28.918L355.3 18.3374C353.185 13.8369 349.369 10.3609 344.69 8.67399C340.012 6.98708 334.855 7.22746 330.354 9.34224L327.09 10.8757C322.589 12.9905 319.112 16.8064 317.425 21.4841C315.738 26.1618 315.978 31.318 318.093 35.8185Z" fill="#2F2E41"/>
<path d="M464.856 357.309H94.9781C91.823 357.306 88.7981 356.051 86.5671 353.82C84.3361 351.59 83.0812 348.566 83.0776 345.411V123.196C83.0802 120.885 83.9996 118.669 85.634 117.035C87.2684 115.4 89.4844 114.481 91.7959 114.478H467.888C470.239 114.481 472.494 115.416 474.156 117.079C475.819 118.741 476.754 120.995 476.757 123.346V345.411C476.753 348.566 475.498 351.59 473.267 353.82C471.036 356.051 468.012 357.306 464.856 357.309Z" fill="#F2F2F2"/>
<path d="M106.518 345.411H453.317C456.377 345.411 459.312 344.195 461.476 342.032C463.641 339.868 464.856 336.933 464.856 333.873V145.266C464.856 142.206 463.641 139.271 461.476 137.108C459.312 134.944 456.377 133.728 453.317 133.728H106.518C103.457 133.728 100.522 134.944 98.3579 137.108C96.1938 139.271 94.978 142.206 94.978 145.266V333.873C94.978 336.933 96.1938 339.868 98.3579 342.032C100.522 344.195 103.457 345.411 106.518 345.411Z" fill="white"/>
<path d="M476.591 122.515H82.9105V116.457C82.9151 113.292 84.1752 110.258 86.4143 108.021C88.6534 105.784 91.6887 104.526 94.8543 104.523H464.647C467.813 104.526 470.848 105.784 473.087 108.021C475.326 110.258 476.586 113.292 476.591 116.457V122.515Z" fill="#EB5757"/>
<path d="M104.616 116.626C106.323 116.626 107.706 115.243 107.706 113.537C107.706 111.831 106.323 110.448 104.616 110.448C102.91 110.448 101.527 111.831 101.527 113.537C101.527 115.243 102.91 116.626 104.616 116.626Z" fill="white"/>
<path d="M116.343 116.626C118.049 116.626 119.432 115.243 119.432 113.537C119.432 111.831 118.049 110.448 116.343 110.448C114.637 110.448 113.254 111.831 113.254 113.537C113.254 115.243 114.637 116.626 116.343 116.626Z" fill="white"/>
<path d="M128.069 116.626C129.776 116.626 131.159 115.243 131.159 113.537C131.159 111.831 129.776 110.448 128.069 110.448C126.363 110.448 124.98 111.831 124.98 113.537C124.98 115.243 126.363 116.626 128.069 116.626Z" fill="white"/>
<path d="M290.738 304.508H259.725C257.908 304.506 256.167 303.784 254.882 302.5C253.598 301.215 252.875 299.474 252.873 297.658V266.65C252.875 264.833 253.598 263.092 254.882 261.808C256.167 260.523 257.908 259.801 259.725 259.799H290.738C292.555 259.801 294.296 260.523 295.581 261.808C296.865 263.092 297.588 264.833 297.59 266.65V297.658C297.588 299.474 296.865 301.215 295.581 302.5C294.296 303.784 292.555 304.506 290.738 304.508ZM259.725 261.241C258.291 261.243 256.916 261.813 255.902 262.827C254.888 263.841 254.317 265.216 254.316 266.65V297.658C254.317 299.092 254.888 300.466 255.902 301.48C256.916 302.494 258.291 303.065 259.725 303.066H290.738C292.172 303.065 293.547 302.494 294.561 301.48C295.576 300.466 296.146 299.092 296.148 297.658V266.65C296.146 265.216 295.576 263.841 294.561 262.827C293.547 261.813 292.172 261.243 290.738 261.241H259.725Z" fill="#CCCCCC"/>
<path d="M284.608 295.855H265.856C265.282 295.854 264.732 295.626 264.326 295.221C263.921 294.815 263.693 294.265 263.692 293.692V270.616C263.693 270.042 263.921 269.492 264.326 269.087C264.732 268.681 265.282 268.453 265.856 268.452H279.443C279.936 268.453 280.414 268.621 280.799 268.93L285.963 273.079C286.216 273.281 286.42 273.538 286.56 273.829C286.7 274.121 286.772 274.441 286.772 274.765V293.692C286.771 294.265 286.543 294.815 286.137 295.221C285.731 295.626 285.181 295.854 284.608 295.855ZM265.856 269.895C265.664 269.895 265.481 269.971 265.346 270.106C265.211 270.241 265.135 270.425 265.134 270.616V293.692C265.135 293.883 265.211 294.066 265.346 294.201C265.481 294.336 265.664 294.412 265.856 294.413H284.608C284.799 294.412 284.982 294.336 285.118 294.201C285.253 294.066 285.329 293.883 285.329 293.692V274.765C285.329 274.657 285.305 274.551 285.259 274.453C285.212 274.356 285.144 274.27 285.06 274.203L279.895 270.053C279.767 269.951 279.607 269.895 279.443 269.895H265.856Z" fill="#CCCCCC"/>
<path d="M281.002 278.548H269.462C269.27 278.548 269.087 278.472 268.952 278.337C268.816 278.202 268.74 278.018 268.74 277.827C268.74 277.636 268.816 277.452 268.952 277.317C269.087 277.182 269.27 277.106 269.462 277.106H281.002C281.193 277.106 281.376 277.182 281.511 277.317C281.647 277.452 281.723 277.636 281.723 277.827C281.723 278.018 281.647 278.202 281.511 278.337C281.376 278.472 281.193 278.548 281.002 278.548Z" fill="#CCCCCC"/>
<path d="M281.002 282.875H269.462C269.27 282.875 269.087 282.799 268.952 282.664C268.816 282.528 268.74 282.345 268.74 282.154C268.74 281.962 268.816 281.779 268.952 281.644C269.087 281.509 269.27 281.433 269.462 281.433H281.002C281.193 281.433 281.376 281.509 281.511 281.644C281.647 281.779 281.723 281.962 281.723 282.154C281.723 282.345 281.647 282.528 281.511 282.664C281.376 282.799 281.193 282.875 281.002 282.875Z" fill="#CCCCCC"/>
<path d="M281.002 287.201H269.462C269.27 287.201 269.087 287.125 268.952 286.99C268.816 286.855 268.74 286.672 268.74 286.48C268.74 286.289 268.816 286.106 268.952 285.97C269.087 285.835 269.27 285.759 269.462 285.759H281.002C281.193 285.759 281.376 285.835 281.511 285.97C281.647 286.106 281.723 286.289 281.723 286.48C281.723 286.672 281.647 286.855 281.511 286.99C281.376 287.125 281.193 287.201 281.002 287.201Z" fill="#CCCCCC"/>
<path d="M364.304 304.508H333.291C331.475 304.506 329.733 303.784 328.449 302.5C327.164 301.215 326.442 299.474 326.439 297.658V266.65C326.442 264.833 327.164 263.092 328.449 261.808C329.733 260.523 331.475 259.801 333.291 259.799H364.304C366.121 259.801 367.863 260.523 369.147 261.808C370.432 263.092 371.154 264.833 371.156 266.65V297.658C371.154 299.474 370.432 301.215 369.147 302.5C367.863 303.784 366.121 304.506 364.304 304.508ZM333.291 261.241C331.857 261.243 330.482 261.813 329.468 262.827C328.454 263.841 327.884 265.216 327.882 266.65V297.658C327.884 299.092 328.454 300.466 329.468 301.48C330.482 302.494 331.857 303.065 333.291 303.066H364.304C365.739 303.065 367.113 302.494 368.128 301.48C369.142 300.466 369.712 299.092 369.714 297.658V266.65C369.712 265.216 369.142 263.841 368.128 262.827C367.113 261.813 365.739 261.243 364.304 261.241H333.291Z" fill="#CCCCCC"/>
<path d="M358.895 290.086H338.701C338.127 290.085 337.577 289.857 337.171 289.452C336.766 289.046 336.537 288.496 336.537 287.923V276.385C336.537 275.811 336.766 275.261 337.171 274.856C337.577 274.45 338.127 274.222 338.701 274.221H358.895C359.469 274.222 360.019 274.45 360.425 274.856C360.83 275.261 361.058 275.811 361.059 276.385V287.923C361.058 288.496 360.83 289.046 360.425 289.452C360.019 289.857 359.469 290.085 358.895 290.086ZM338.701 275.664C338.509 275.664 338.326 275.74 338.191 275.875C338.056 276.01 337.98 276.194 337.979 276.385V287.923C337.98 288.114 338.056 288.297 338.191 288.432C338.326 288.568 338.509 288.644 338.701 288.644H358.895C359.086 288.644 359.27 288.568 359.405 288.432C359.54 288.297 359.616 288.114 359.616 287.923V276.385C359.616 276.194 359.54 276.01 359.405 275.875C359.27 275.74 359.086 275.664 358.895 275.664H338.701Z" fill="#CCCCCC"/>
<path d="M348.798 284.056C348.393 284.057 347.995 283.944 347.651 283.73L336.876 276.996C336.714 276.895 336.599 276.733 336.556 276.547C336.513 276.361 336.546 276.165 336.648 276.003C336.749 275.841 336.91 275.726 337.096 275.683C337.283 275.64 337.478 275.672 337.641 275.773L348.416 282.506C348.531 282.578 348.663 282.615 348.798 282.615C348.933 282.615 349.066 282.578 349.18 282.506L359.955 275.773C360.117 275.672 360.313 275.64 360.499 275.683C360.685 275.726 360.847 275.841 360.948 276.003C361.049 276.165 361.082 276.361 361.04 276.547C360.997 276.733 360.882 276.895 360.72 276.996L349.945 283.73C349.601 283.944 349.203 284.057 348.798 284.056Z" fill="#CCCCCC"/>
<path d="M217.172 304.508H186.159C184.342 304.506 182.601 303.784 181.316 302.5C180.032 301.215 179.309 299.474 179.307 297.658V266.65C179.309 264.833 180.032 263.092 181.316 261.808C182.601 260.523 184.342 259.801 186.159 259.799H217.172C218.989 259.801 220.73 260.523 222.015 261.808C223.299 263.092 224.022 264.833 224.024 266.65V297.658C224.022 299.474 223.299 301.215 222.015 302.5C220.73 303.784 218.989 304.506 217.172 304.508ZM186.159 261.241C184.725 261.243 183.35 261.813 182.336 262.827C181.322 263.841 180.751 265.216 180.75 266.65V297.658C180.751 299.092 181.322 300.466 182.336 301.48C183.35 302.494 184.725 303.065 186.159 303.066H217.172C218.606 303.065 219.981 302.494 220.995 301.48C222.009 300.466 222.58 299.092 222.581 297.658V266.65C222.58 265.216 222.009 263.841 220.995 262.827C219.981 261.813 218.606 261.243 217.172 261.241H186.159Z" fill="#CCCCCC"/>
<path d="M211.763 290.086H191.568C190.994 290.085 190.444 289.857 190.039 289.452C189.633 289.046 189.405 288.496 189.404 287.923V276.385C189.405 275.811 189.633 275.261 190.039 274.856C190.444 274.45 190.994 274.222 191.568 274.221H211.763C212.336 274.222 212.886 274.45 213.292 274.856C213.698 275.261 213.926 275.811 213.926 276.385V287.923C213.926 288.496 213.698 289.046 213.292 289.452C212.886 289.857 212.336 290.085 211.763 290.086ZM191.568 275.664C191.377 275.664 191.193 275.74 191.058 275.875C190.923 276.01 190.847 276.194 190.847 276.385V287.923C190.847 288.114 190.923 288.297 191.058 288.432C191.193 288.568 191.377 288.644 191.568 288.644H211.763C211.954 288.644 212.137 288.568 212.272 288.432C212.408 288.297 212.484 288.114 212.484 287.923V276.385C212.484 276.194 212.408 276.01 212.272 275.875C212.137 275.74 211.954 275.664 211.763 275.664H191.568Z" fill="#CCCCCC"/>
<path d="M208.562 290.086H194.048C193.794 290.086 193.546 290.019 193.326 289.893C193.107 289.766 192.925 289.584 192.798 289.365C192.672 289.146 192.605 288.897 192.605 288.644C192.605 288.391 192.672 288.142 192.798 287.923L197.17 280.351C197.297 280.132 197.479 279.95 197.698 279.823C197.918 279.696 198.166 279.63 198.42 279.63C198.673 279.63 198.922 279.696 199.141 279.823C199.36 279.95 199.542 280.132 199.669 280.351L202.493 285.241L204.128 282.408C204.255 282.189 204.437 282.007 204.656 281.88C204.876 281.753 205.124 281.687 205.378 281.687C205.631 281.687 205.88 281.753 206.099 281.88C206.318 282.007 206.5 282.189 206.627 282.408L209.811 287.923C209.938 288.142 210.004 288.391 210.004 288.644C210.004 288.897 209.938 289.146 209.811 289.365C209.685 289.584 209.502 289.766 209.283 289.893C209.064 290.019 208.815 290.086 208.562 290.086H208.562ZM208.562 288.644L205.378 283.129L203.117 287.044C203.054 287.153 202.963 287.244 202.853 287.308C202.744 287.371 202.619 287.404 202.493 287.404C202.366 287.404 202.242 287.371 202.132 287.308C202.022 287.244 201.931 287.153 201.868 287.044L198.42 281.072L194.048 288.644H208.562Z" fill="#CCCCCC"/>
<path d="M209.599 279.99C210.396 279.99 211.041 279.344 211.041 278.548C211.041 277.751 210.396 277.106 209.599 277.106C208.802 277.106 208.156 277.751 208.156 278.548C208.156 279.344 208.802 279.99 209.599 279.99Z" fill="#CCCCCC"/>
<path d="M554.505 467.893L545.663 467.892L541.457 433.792L554.507 433.792L554.505 467.893Z" fill="#FFB8B8"/>
<path d="M556.76 476.462L528.25 476.461V476.101C528.249 474.644 528.536 473.201 529.094 471.855C529.652 470.509 530.469 469.285 531.5 468.255C532.53 467.225 533.754 466.408 535.1 465.85C536.446 465.292 537.889 465.005 539.347 465.005H539.348L556.761 465.006L556.76 476.462Z" fill="#2F2E41"/>
<path d="M590.567 467.893L581.725 467.892L577.519 433.792L590.569 433.792L590.567 467.893Z" fill="#FFB8B8"/>
<path d="M592.822 476.462L564.311 476.461V476.101C564.311 474.644 564.598 473.201 565.156 471.855C565.714 470.509 566.531 469.285 567.562 468.255C568.592 467.225 569.815 466.408 571.162 465.85C572.508 465.292 573.951 465.005 575.409 465.005H575.409L592.823 465.006L592.822 476.462Z" fill="#2F2E41"/>
<path d="M587.917 453.11L579.727 450.619C579.117 450.434 578.575 450.073 578.169 449.582C577.762 449.09 577.51 448.489 577.444 447.855L569.809 375.508C569.803 375.421 569.764 375.339 569.7 375.279C569.636 375.219 569.552 375.186 569.464 375.186C569.376 375.177 569.289 375.203 569.22 375.258C569.151 375.314 569.107 375.393 569.096 375.481L556.307 445.573C556.23 445.998 556.068 446.404 555.831 446.765C555.595 447.127 555.288 447.438 554.93 447.68C554.571 447.922 554.168 448.09 553.744 448.174C553.32 448.257 552.883 448.256 552.46 448.169L541.994 446.013C541.226 445.852 540.542 445.42 540.068 444.796C539.593 444.172 539.36 443.397 539.41 442.615L547.189 327.732L599.939 322.041L592.101 450.203C592.05 451.027 591.687 451.801 591.087 452.367C590.486 452.933 589.692 453.249 588.866 453.252C588.545 453.251 588.224 453.204 587.917 453.11Z" fill="#2F2E41"/>
<path d="M587.866 227.687C597.65 227.687 605.581 219.757 605.581 209.975C605.581 200.194 597.65 192.264 587.866 192.264C578.083 192.264 570.152 200.194 570.152 209.975C570.152 219.757 578.083 227.687 587.866 227.687Z" fill="#FFB8B8"/>
<path d="M547.108 328.407L558.545 256.402C559.154 252.574 560.57 248.919 562.701 245.68C564.832 242.442 567.628 239.695 570.904 237.621C574.179 235.547 577.859 234.194 581.698 233.653C585.537 233.111 589.447 233.394 593.169 234.481C599.675 236.362 605.247 240.601 608.794 246.37C612.342 252.139 613.611 259.023 612.354 265.678L600.388 329.981L547.108 328.407Z" fill="#EB5757"/>
<path d="M592.757 341.29C593.642 340.706 594.388 339.935 594.942 339.031C595.497 338.128 595.846 337.114 595.966 336.06C596.087 335.007 595.974 333.94 595.637 332.935C595.301 331.93 594.747 331.011 594.017 330.243L605.842 307.346L592.525 308.767L583.337 330.292C582.127 331.605 581.441 333.315 581.409 335.1C581.377 336.884 582 338.619 583.161 339.974C584.322 341.33 585.94 342.213 587.709 342.455C589.478 342.698 591.274 342.283 592.757 341.29V341.29Z" fill="#FFB8B8"/>
<path d="M595.289 326.204C594.635 326.112 594.024 325.822 593.539 325.374L589.015 321.194C588.526 320.74 588.188 320.147 588.047 319.495C587.906 318.844 587.969 318.164 588.227 317.549L597.27 296.119L595.987 253.775C596.171 252.414 596.622 251.102 597.314 249.916C598.005 248.729 598.924 247.69 600.018 246.858C601.111 246.027 602.358 245.419 603.686 245.069C605.015 244.719 606.399 244.635 607.761 244.821C609.122 245.006 610.433 245.458 611.62 246.151C612.806 246.844 613.844 247.763 614.675 248.857C615.506 249.951 616.113 251.198 616.461 252.527C616.81 253.856 616.893 255.24 616.706 256.601L618.899 283.219C619.566 291.298 617.275 299.343 612.453 305.86L598.351 324.921C598.08 325.287 597.734 325.592 597.337 325.816C596.94 326.04 596.501 326.178 596.047 326.221C595.794 326.245 595.54 326.24 595.289 326.204Z" fill="#EB5757"/>
<path d="M485.855 200.326C486.048 201.368 486.468 202.355 487.083 203.218C487.699 204.081 488.497 204.798 489.42 205.32C490.344 205.841 491.37 206.153 492.427 206.235C493.484 206.317 494.546 206.166 495.539 205.793L512.016 225.608L515.9 212.792L499.657 195.941C498.92 194.315 497.612 193.016 495.981 192.291C494.35 191.565 492.51 191.463 490.808 192.004C489.107 192.544 487.663 193.69 486.75 195.224C485.837 196.757 485.519 198.573 485.855 200.326Z" fill="#FFB8B8"/>
<path d="M498.762 208.539C499.103 207.973 499.607 207.524 500.209 207.251L505.823 204.715C506.432 204.442 507.109 204.362 507.765 204.487C508.42 204.611 509.021 204.934 509.487 205.411L525.699 222.092L565.198 237.421C566.38 238.121 567.413 239.048 568.237 240.147C569.06 241.247 569.659 242.498 569.999 243.829C570.339 245.16 570.413 246.545 570.217 247.905C570.021 249.265 569.559 250.573 568.857 251.754C568.155 252.935 567.227 253.966 566.127 254.788C565.026 255.611 563.774 256.208 562.442 256.546C561.11 256.884 559.725 256.957 558.365 256.759C557.006 256.562 555.698 256.098 554.518 255.395L529.147 247.036C521.446 244.501 514.929 239.254 510.808 232.274L498.751 211.859C498.519 211.466 498.373 211.029 498.321 210.576C498.269 210.123 498.314 209.664 498.451 209.23C498.527 208.988 498.632 208.756 498.762 208.539Z" fill="#EB5757"/>
<path opacity="0.1" d="M602.235 271.389L601.514 294.465L588.227 317.549L599.321 291.824L602.235 271.389Z" fill="black"/>
<path d="M585.837 213.304C584.724 213.448 583.597 213.184 582.665 212.561C581.732 211.937 581.057 210.996 580.766 209.913C580.485 208.666 579.871 207.519 578.987 206.595C578.104 205.671 576.986 205.005 575.753 204.668C572.504 203.925 568.532 205.455 566.151 202.993C565.641 202.431 565.272 201.756 565.075 201.024C564.877 200.291 564.857 199.522 565.015 198.78C565.453 196.388 567.165 194.581 569.027 193.136C572.947 190.108 577.69 188.336 582.634 188.051C585.194 187.977 587.755 188.105 590.294 188.432C592.953 188.6 595.583 189.081 598.13 189.864C601.031 190.959 603.609 192.767 605.626 195.121C607.643 197.476 609.034 200.3 609.671 203.335C610.253 206.378 610.163 209.512 609.409 212.518C608.654 215.523 607.253 218.328 605.302 220.735C602.967 223.643 599.956 225.935 596.531 227.412C595.716 227.797 594.781 227.845 593.93 227.544C591.797 226.696 592.146 224.054 593.118 222.292C594.159 220.407 595.761 218.581 594.924 216.287C594.504 215.222 593.699 214.356 592.668 213.859C590.548 212.778 588.176 213.034 585.897 213.297L585.837 213.304Z" fill="#2F2E41"/>
<path d="M479.935 223.306H260.679C257.524 223.302 254.499 222.047 252.268 219.817C250.037 217.586 248.782 214.562 248.779 211.407V164.535C248.782 161.38 250.037 158.356 252.268 156.125C254.499 153.894 257.524 152.64 260.679 152.636H479.935C483.09 152.64 486.115 153.895 488.346 156.125C490.577 158.356 491.832 161.38 491.836 164.535V211.407C491.832 214.562 490.577 217.586 488.346 219.817C486.115 222.047 483.09 223.302 479.935 223.306Z" fill="white"/>
<path d="M479.935 223.666H260.679C257.428 223.663 254.312 222.37 252.013 220.072C249.715 217.774 248.422 214.658 248.418 211.407V164.535C248.422 161.285 249.715 158.169 252.013 155.87C254.312 153.572 257.428 152.279 260.679 152.276H479.935C483.186 152.279 486.302 153.572 488.601 155.87C490.9 158.169 492.193 161.285 492.196 164.535V211.407C492.193 214.658 490.9 217.774 488.601 220.072C486.302 222.37 483.186 223.663 479.935 223.666ZM260.679 153.718C257.811 153.721 255.061 154.862 253.033 156.89C251.005 158.918 249.864 161.667 249.86 164.535V211.407C249.864 214.275 251.005 217.025 253.033 219.052C255.061 221.08 257.811 222.221 260.679 222.224H479.935C482.803 222.221 485.553 221.08 487.582 219.052C489.61 217.025 490.751 214.275 490.754 211.407V164.535C490.751 161.667 489.61 158.918 487.582 156.89C485.553 154.862 482.803 153.721 479.935 153.718H260.679Z" fill="#3F3D56"/>
<path d="M453.249 211.768H287.365C284.21 211.764 281.185 210.51 278.954 208.279C276.723 206.048 275.468 203.024 275.464 199.87V175.352C275.468 172.197 276.723 169.173 278.954 166.942C281.185 164.711 284.21 163.457 287.365 163.453H453.249C456.405 163.457 459.429 164.711 461.66 166.942C463.891 169.173 465.146 172.197 465.15 175.352V199.87C465.146 203.024 463.891 206.048 461.66 208.279C459.429 210.51 456.405 211.764 453.249 211.768Z" fill="#F2F2F2"/>
<path d="M323.062 198.553C330.922 198.553 337.294 192.182 337.294 184.324C337.294 176.465 330.922 170.094 323.062 170.094C315.203 170.094 308.831 176.465 308.831 184.324C308.831 192.182 315.203 198.553 323.062 198.553Z" fill="#FF6584"/>
<path d="M442.941 210.332L422.853 193.487L403.111 176.933C402.59 176.496 401.932 176.257 401.252 176.258C400.572 176.26 399.914 176.501 399.395 176.94L379.717 193.57L374.911 197.632L367.663 191.555L345.639 173.087C345.118 172.65 344.459 172.411 343.78 172.412C343.1 172.414 342.442 172.655 341.923 173.094L319.97 191.647L297.671 210.492C297.558 210.588 297.477 210.716 297.44 210.859C297.402 211.002 297.409 211.153 297.46 211.292C297.511 211.43 297.603 211.55 297.725 211.635C297.846 211.719 297.99 211.765 298.138 211.764L343.855 211.676L358.326 211.648L358.184 211.768L401.32 211.685L442.479 211.606C442.627 211.605 442.771 211.56 442.892 211.475C443.013 211.39 443.105 211.269 443.155 211.13C443.206 210.991 443.212 210.84 443.174 210.697C443.136 210.555 443.054 210.427 442.941 210.332Z" fill="#3F3D56"/>
<path d="M631.279 477.5H492.801C492.61 477.5 492.426 477.424 492.291 477.289C492.156 477.154 492.08 476.97 492.08 476.779C492.08 476.588 492.156 476.404 492.291 476.269C492.426 476.134 492.61 476.058 492.801 476.058H631.279C631.47 476.058 631.653 476.134 631.789 476.269C631.924 476.404 632 476.588 632 476.779C632 476.97 631.924 477.154 631.789 477.289C631.653 477.424 631.47 477.5 631.279 477.5Z" fill="#CCCCCC"/>
<path d="M435.668 95.6243C435.092 94.6884 434.331 93.8796 433.432 93.2473C432.533 92.615 431.515 92.1725 430.439 91.9466C430.045 91.8638 429.644 91.8131 429.242 91.7952L374.291 42.6726C373.211 41.5634 371.771 40.8756 370.23 40.7328C369.926 40.6979 369.62 40.6882 369.314 40.704C368.046 40.7616 366.823 41.1873 365.793 41.9291C364.763 42.6709 363.972 43.6966 363.516 44.8808C363.06 46.065 362.959 47.3564 363.225 48.5971C363.492 49.8378 364.114 50.974 365.016 51.8669L386.054 70.2049L420.601 100.312C420.63 100.879 420.714 101.441 420.854 101.992C421.267 103.586 422.156 105.017 423.401 106.095C424.647 107.173 426.191 107.847 427.828 108.028C429.321 108.202 430.834 107.952 432.192 107.306C433.268 106.803 434.223 106.072 434.99 105.165C435.069 105.071 435.142 104.984 435.214 104.883C436.222 103.569 436.806 101.979 436.887 100.325C436.968 98.6705 436.543 97.0307 435.668 95.6243H435.668Z" fill="#FFB8B8"/>
<path d="M341.676 142.966L341.164 122.154L340.732 104.884L340.436 92.7976L339.851 69.2386C339.736 67.9773 339.256 66.7769 338.469 65.7839C337.683 64.7909 336.624 64.0484 335.422 63.6469C334.221 63.2455 332.928 63.2025 331.703 63.5231C330.477 63.8438 329.372 64.5143 328.521 65.4528C328.32 65.6672 328.139 65.8989 327.98 66.1451C327.092 67.4166 326.692 68.9656 326.855 70.5078L328.139 104.884L328.781 122.154L329.603 144.184C329.366 144.508 329.151 144.848 328.961 145.201C328.448 146.174 328.138 147.24 328.05 148.336C327.962 149.432 328.098 150.534 328.449 151.576C328.815 152.668 329.409 153.671 330.191 154.517C330.973 155.364 331.926 156.035 332.986 156.487C334.046 156.938 335.19 157.16 336.342 157.138C337.495 157.116 338.629 156.849 339.671 156.357C340.881 155.785 341.932 154.923 342.73 153.849C343.528 152.775 344.05 151.52 344.248 150.196C344.446 148.873 344.315 147.521 343.867 146.259C343.418 144.998 342.666 143.867 341.676 142.966H341.676Z" fill="#FFB8B8"/>
<path d="M391.153 84.0144L386.054 70.2049L377.803 47.8359C377.208 46.2083 376.254 44.7357 375.011 43.5273C373.769 42.3188 372.27 41.4056 370.627 40.8554C370.497 40.8122 370.36 40.7689 370.23 40.7328C368.638 40.2496 366.96 40.1168 365.312 40.3433C363.664 40.5699 362.084 41.1505 360.681 42.0452L332.892 59.6694C330.347 61.2797 328.527 63.8162 327.818 66.7428C327.109 69.6695 327.565 72.7572 329.091 75.3537C332.566 81.3619 336.353 87.1844 340.436 92.7975C343.674 97.2036 349.704 97.6723 350.75 104.883H371.24L391.983 86.2642L391.153 84.0144Z" fill="#CCCCCC"/>
<path d="M72.9637 252.786C82.1937 252.786 89.676 245.305 89.676 236.077C89.676 226.848 82.1937 219.367 72.9637 219.367C63.7338 219.367 56.2515 226.848 56.2515 236.077C56.2515 245.305 63.7338 252.786 72.9637 252.786Z" fill="#A0616A"/>
<path d="M113.993 224.575C114.157 224.706 114.317 224.845 114.471 224.991C115.239 225.714 115.845 226.592 116.25 227.565C116.655 228.539 116.85 229.587 116.822 230.641C116.793 231.696 116.543 232.732 116.086 233.682C115.629 234.633 114.976 235.476 114.171 236.157C113.983 236.314 113.787 236.462 113.584 236.599L114.715 274.779C114.747 276.029 114.375 277.256 113.655 278.277C112.934 279.299 111.904 280.062 110.715 280.452L110.646 280.467L79.6415 283.768C78.7985 283.857 77.9462 283.779 77.1336 283.538C76.3211 283.296 75.5645 282.896 74.9075 282.36C74.2504 281.825 73.706 281.165 73.3057 280.418C72.9053 279.67 72.657 278.851 72.5749 278.008C72.4929 277.164 72.5788 276.313 72.8277 275.503C73.0766 274.692 73.4836 273.94 74.0252 273.288C74.5667 272.636 75.2321 272.097 75.9828 271.704C76.7336 271.31 77.5549 271.069 78.3994 270.995L100.501 269.049L104.323 235.985C104.073 235.763 103.839 235.525 103.623 235.271C102.424 233.853 101.796 232.04 101.859 230.184C101.923 228.329 102.673 226.563 103.966 225.23C105.258 223.897 107 223.092 108.853 222.971C110.706 222.849 112.538 223.421 113.993 224.575H113.993Z" fill="#A0616A"/>
<path d="M100.489 468.631H108.831L112.799 436.46H100.487L100.489 468.631Z" fill="#A0616A"/>
<path d="M98.3611 465.908L114.789 465.907H114.79C116.165 465.907 117.526 466.178 118.797 466.704C120.067 467.23 121.221 468.001 122.193 468.973C123.165 469.945 123.937 471.099 124.463 472.369C124.989 473.639 125.26 475 125.26 476.375V476.715L98.3616 476.716L98.3611 465.908Z" fill="#2F2E41"/>
<path d="M17.5737 457.099L24.7414 461.366L44.6136 435.754L34.0345 429.456L17.5737 457.099Z" fill="#A0616A"/>
<path d="M17.1387 453.671L31.2545 462.074L31.255 462.074C32.4364 462.778 33.4676 463.707 34.2898 464.809C35.112 465.91 35.7092 467.163 36.0471 468.496C36.385 469.828 36.4572 471.214 36.2594 472.574C36.0616 473.935 35.5977 475.243 34.8943 476.424L34.7202 476.716L11.6085 462.958L17.1387 453.671Z" fill="#2F2E41"/>
<path d="M110.799 457.268H101.458C100.702 457.269 99.9717 456.99 99.4093 456.484C98.8469 455.979 98.4921 455.282 98.4134 454.53L88.996 366.022C88.9723 365.799 88.8758 365.591 88.7216 365.428C88.5674 365.265 88.364 365.158 88.1427 365.123C87.9215 365.087 87.6947 365.125 87.4973 365.231C87.3 365.338 87.1431 365.506 87.0507 365.71L70.0617 403.323L39.9835 452.36C39.5942 452.989 38.9915 453.457 38.2857 453.677C37.5798 453.898 36.8182 453.857 36.1401 453.562L24.1241 448.276C23.7268 448.101 23.3712 447.844 23.0809 447.521C22.7906 447.198 22.5723 446.817 22.4403 446.404C22.3084 445.99 22.2658 445.554 22.3156 445.122C22.3653 444.691 22.5061 444.276 22.7287 443.903L50.3788 397.613L58.8589 358.611C56.1918 341.697 67.6255 316.551 67.7415 316.299L67.7981 316.176L99.2928 303.868L99.4507 304.061C111.871 344.814 119.44 388.672 113.851 454.463C113.783 455.226 113.432 455.937 112.867 456.455C112.303 456.974 111.566 457.264 110.799 457.268Z" fill="#2F2E41"/>
<path d="M66.5293 320.297L66.3826 319.989C66.3125 319.841 59.3094 305.073 53.9109 289.289C52.8734 286.237 52.4812 283.003 52.7592 279.791C53.0371 276.579 53.9791 273.46 55.5255 270.632C57.092 267.774 59.2351 265.272 61.8191 263.285C64.403 261.299 67.3714 259.87 70.5363 259.091C76.0307 257.774 81.8153 258.475 86.8363 261.065C91.8574 263.655 95.7806 267.963 97.8913 273.203C102.173 283.909 100.809 295.337 99.5243 304.324L99.4988 304.504L99.335 304.583L66.5293 320.297Z" fill="#3F3D56"/>
<path d="M93.2268 226.638H66.6897V215.072C72.5143 212.759 78.214 210.791 81.6593 215.072C84.7272 215.072 87.6694 216.291 89.8387 218.46C92.0081 220.629 93.2268 223.57 93.2268 226.638V226.638Z" fill="#2F2E41"/>
<path d="M65.2206 213.031C49.3562 213.031 44.9158 232.913 44.9158 244.13C44.9158 250.385 47.7452 252.622 52.1913 253.379L53.7615 245.006L57.4391 253.74C58.688 253.746 60 253.722 61.3602 253.696L62.6072 251.129L65.3877 253.65C76.5243 253.667 85.5251 255.29 85.5251 244.13C85.5251 232.913 81.6309 213.031 65.2206 213.031Z" fill="#2F2E41"/>
<path d="M139.199 477.5H0.721237C0.529953 477.5 0.346503 477.424 0.211245 477.289C0.0759868 477.154 0 476.97 0 476.779C0 476.588 0.0759868 476.404 0.211245 476.269C0.346503 476.134 0.529953 476.058 0.721237 476.058H139.199C139.39 476.058 139.574 476.134 139.709 476.269C139.844 476.404 139.92 476.588 139.92 476.779C139.92 476.97 139.844 477.154 139.709 477.289C139.574 477.424 139.39 477.5 139.199 477.5Z" fill="#CCCCCC"/>
<path d="M141.803 240.252H110.789C108.973 240.25 107.231 239.528 105.947 238.243C104.662 236.959 103.94 235.218 103.938 233.402V202.393C103.94 200.577 104.662 198.836 105.947 197.552C107.231 196.267 108.973 195.545 110.789 195.543H141.803C143.619 195.545 145.361 196.267 146.645 197.552C147.93 198.836 148.652 200.577 148.654 202.393V233.402C148.652 235.218 147.93 236.959 146.645 238.243C145.361 239.528 143.619 240.25 141.803 240.252Z" fill="white"/>
<path d="M141.803 240.252H110.789C108.973 240.25 107.231 239.528 105.947 238.243C104.662 236.959 103.94 235.218 103.938 233.402V202.393C103.94 200.577 104.662 198.836 105.947 197.552C107.231 196.267 108.973 195.545 110.789 195.543H141.803C143.619 195.545 145.361 196.267 146.645 197.552C147.93 198.836 148.652 200.577 148.654 202.393V233.402C148.652 235.218 147.93 236.959 146.645 238.243C145.361 239.528 143.619 240.25 141.803 240.252ZM110.789 196.985C109.355 196.987 107.98 197.557 106.966 198.571C105.952 199.585 105.382 200.96 105.38 202.393V233.402C105.382 234.835 105.952 236.21 106.966 237.224C107.98 238.238 109.355 238.808 110.789 238.81H141.803C143.237 238.808 144.612 238.238 145.626 237.224C146.64 236.21 147.21 234.835 147.212 233.402V202.393C147.21 200.96 146.64 199.585 145.626 198.571C144.612 197.557 143.237 196.987 141.803 196.985H110.789Z" fill="#3F3D56"/>
<path d="M136.393 227.633H116.199C115.625 227.632 115.075 227.404 114.669 226.998C114.264 226.593 114.036 226.043 114.035 225.469V210.326C114.036 209.752 114.264 209.202 114.669 208.797C115.075 208.391 115.625 208.163 116.199 208.162H121.884C122.254 208.161 122.617 208.255 122.94 208.435C123.263 208.616 123.534 208.876 123.727 209.192L125.312 211.768H136.393C136.967 211.769 137.517 211.997 137.923 212.402C138.328 212.808 138.556 213.358 138.557 213.931V225.469C138.556 226.043 138.328 226.593 137.923 226.998C137.517 227.404 136.967 227.632 136.393 227.633Z" fill="#EB5757"/>
<path d="M135.737 235.283C135.837 235.468 135.931 235.658 136.016 235.853C136.443 236.817 136.661 237.861 136.657 238.915C136.652 239.97 136.425 241.012 135.99 241.972C135.554 242.933 134.921 243.791 134.131 244.489C133.341 245.188 132.412 245.712 131.406 246.027C131.171 246.099 130.933 246.159 130.693 246.207L116.918 281.833C116.462 282.998 115.643 283.984 114.583 284.647C113.522 285.309 112.276 285.612 111.03 285.51L110.961 285.497L81.1039 276.511C80.2922 276.266 79.5369 275.864 78.8817 275.326C78.2265 274.788 77.6843 274.126 77.2866 273.377C76.8888 272.628 76.6433 271.809 76.5642 270.965C76.4852 270.121 76.5741 269.27 76.8259 268.46C77.0777 267.651 77.4874 266.899 78.0313 266.249C78.5752 265.599 79.2426 265.063 79.9948 264.672C80.7471 264.281 81.5693 264.043 82.4141 263.972C83.2588 263.901 84.1093 263.997 84.9165 264.257L106.042 271.038L122.397 242.048C122.252 241.747 122.129 241.436 122.028 241.118C121.474 239.346 121.598 237.431 122.377 235.746C123.155 234.06 124.533 232.724 126.241 231.997C127.95 231.27 129.867 231.204 131.622 231.811C133.377 232.418 134.843 233.656 135.737 235.283H135.737Z" fill="#A0616A"/>
</g>
<defs>
<clipPath id="clip0">
<rect width="632" height="477" fill="white" transform="translate(0 0.5)"/>
</clipPath>
</defs>
</svg>
