<svg width="100%" height="100%" viewBox="0 0 1968 515" fill="none" xmlns="http://www.w3.org/2000/svg">
<path fill-rule="evenodd" clip-rule="evenodd" d="M217.297 172.297C225.693 163.901 239.307 163.901 247.703 172.297L399.731 324.325C408.518 333.112 408.518 347.358 399.731 356.145L247.703 508.173C239.307 516.569 225.694 516.569 217.297 508.173C208.901 499.777 208.901 486.164 217.297 477.767L354.829 340.235L217.297 202.703C208.901 194.307 208.901 180.693 217.297 172.297Z" fill="#FE7F0F"/>
<path fill-rule="evenodd" clip-rule="evenodd" d="M204.197 6.7947C195.127 -2.2649 180.421 -2.2649 171.351 6.79469L7.11912 170.833C-2.37305 180.314 -2.37303 195.686 7.11911 205.167L171.351 369.205C180.421 378.265 195.127 378.265 204.197 369.205C213.268 360.146 213.268 345.457 204.197 336.398L55.6248 188L204.197 39.6024C213.268 30.5428 213.268 15.8543 204.197 6.7947Z" fill="#FE7F0F"/>
<path d="M640.569 252.684C640.569 266.356 638.616 278.173 634.71 288.133C630.901 298.094 625.53 306.395 618.596 313.036C611.76 319.579 603.655 324.462 594.28 327.684C584.905 330.809 574.7 332.372 563.665 332.372C559.954 332.372 556.243 332.128 552.532 331.639C548.821 331.151 545.452 330.516 542.424 329.735V387.889H506.682V180.907H537.59L538.469 202.88C541.497 199.071 544.622 195.604 547.844 192.479C551.165 189.354 554.729 186.717 558.538 184.569C562.346 182.323 566.448 180.614 570.842 179.442C575.237 178.27 580.169 177.684 585.637 177.684C594.426 177.684 602.239 179.442 609.075 182.958C615.911 186.473 621.624 191.503 626.214 198.046C630.901 204.491 634.465 212.352 636.907 221.63C639.348 230.809 640.569 241.161 640.569 252.684ZM603.069 254.149C603.069 245.946 602.483 238.964 601.311 233.202C600.139 227.44 598.43 222.704 596.184 218.993C594.036 215.282 591.35 212.596 588.128 210.936C585.003 209.178 581.389 208.299 577.288 208.299C571.233 208.299 565.422 210.741 559.856 215.624C554.387 220.507 548.577 227.147 542.424 235.546V300.585C545.256 301.659 548.723 302.538 552.825 303.221C557.024 303.905 561.272 304.247 565.569 304.247C571.233 304.247 576.36 303.075 580.95 300.731C585.637 298.387 589.592 295.067 592.815 290.77C596.135 286.473 598.674 281.249 600.432 275.096C602.19 268.846 603.069 261.864 603.069 254.149Z" fill="#FE7F0F"/>
<path d="M764.934 329.735L764.055 310.253C760.93 313.573 757.659 316.649 754.241 319.481C750.823 322.216 747.063 324.608 742.962 326.659C738.86 328.71 734.368 330.272 729.485 331.346C724.7 332.518 719.426 333.104 713.665 333.104C706.047 333.104 699.358 331.981 693.596 329.735C687.835 327.489 683.001 324.364 679.094 320.36C675.188 316.356 672.21 311.522 670.159 305.858C668.206 300.194 667.229 293.944 667.229 287.108C667.229 280.077 668.694 273.583 671.624 267.626C674.651 261.669 679.192 256.542 685.247 252.245C691.399 247.948 699.016 244.579 708.098 242.137C717.278 239.696 728.02 238.475 740.325 238.475H759.807V229.54C759.807 225.731 759.27 222.313 758.196 219.286C757.122 216.161 755.364 213.524 752.922 211.376C750.579 209.227 747.503 207.567 743.694 206.395C739.885 205.223 735.198 204.637 729.631 204.637C720.842 204.637 712.151 205.663 703.557 207.714C695.061 209.667 686.809 212.45 678.801 216.063V187.499C685.93 184.667 694.133 182.323 703.411 180.467C712.786 178.612 722.503 177.684 732.561 177.684C743.596 177.684 753.069 178.758 760.979 180.907C768.889 182.958 775.383 186.083 780.462 190.282C785.637 194.481 789.446 199.755 791.887 206.102C794.329 212.352 795.549 219.676 795.549 228.075V329.735H764.934ZM759.807 263.964H737.981C731.926 263.964 726.799 264.549 722.6 265.721C718.401 266.893 714.983 268.505 712.346 270.555C709.71 272.606 707.756 274.999 706.487 277.733C705.315 280.37 704.729 283.202 704.729 286.229C704.729 292.284 706.682 296.923 710.589 300.145C714.495 303.27 719.817 304.833 726.555 304.833C731.536 304.833 736.712 303.026 742.083 299.413C747.454 295.799 753.362 290.624 759.807 283.885V263.964Z" fill="#FE7F0F"/>
<path d="M932.366 238.768C932.561 233.202 932.268 228.466 931.487 224.559C930.803 220.653 929.631 217.43 927.971 214.891C926.409 212.352 924.456 210.497 922.112 209.325C919.768 208.153 917.083 207.567 914.055 207.567C908.782 207.567 903.313 209.764 897.649 214.159C892.083 218.456 885.93 225.585 879.192 235.546V329.735H842.571V180.907H874.944L876.262 202.587C878.704 198.778 881.438 195.36 884.465 192.333C887.59 189.305 891.008 186.717 894.719 184.569C898.528 182.323 902.727 180.614 907.317 179.442C911.907 178.27 916.936 177.684 922.405 177.684C929.924 177.684 936.565 179.003 942.327 181.639C948.186 184.178 953.069 187.987 956.975 193.065C960.979 198.143 963.909 204.54 965.764 212.255C967.717 219.872 968.547 228.71 968.255 238.768H932.366Z" fill="#FE7F0F"/>
<path d="M1094.82 329.735L1093.94 310.253C1090.81 313.573 1087.54 316.649 1084.12 319.481C1080.71 322.216 1076.95 324.608 1072.84 326.659C1068.74 328.71 1064.25 330.272 1059.37 331.346C1054.58 332.518 1049.31 333.104 1043.55 333.104C1035.93 333.104 1029.24 331.981 1023.48 329.735C1017.72 327.489 1012.88 324.364 1008.98 320.36C1005.07 316.356 1002.09 311.522 1000.04 305.858C998.089 300.194 997.112 293.944 997.112 287.108C997.112 280.077 998.577 273.583 1001.51 267.626C1004.53 261.669 1009.07 256.542 1015.13 252.245C1021.28 247.948 1028.9 244.579 1037.98 242.137C1047.16 239.696 1057.9 238.475 1070.21 238.475H1089.69V229.54C1089.69 225.731 1089.15 222.313 1088.08 219.286C1087 216.161 1085.25 213.524 1082.81 211.376C1080.46 209.227 1077.39 207.567 1073.58 206.395C1069.77 205.223 1065.08 204.637 1059.51 204.637C1050.73 204.637 1042.03 205.663 1033.44 207.714C1024.94 209.667 1016.69 212.45 1008.68 216.063V187.499C1015.81 184.667 1024.02 182.323 1033.29 180.467C1042.67 178.612 1052.39 177.684 1062.44 177.684C1073.48 177.684 1082.95 178.758 1090.86 180.907C1098.77 182.958 1105.27 186.083 1110.34 190.282C1115.52 194.481 1119.33 199.755 1121.77 206.102C1124.21 212.352 1125.43 219.676 1125.43 228.075V329.735H1094.82ZM1089.69 263.964H1067.86C1061.81 263.964 1056.68 264.549 1052.48 265.721C1048.28 266.893 1044.87 268.505 1042.23 270.555C1039.59 272.606 1037.64 274.999 1036.37 277.733C1035.2 280.37 1034.61 283.202 1034.61 286.229C1034.61 292.284 1036.57 296.923 1040.47 300.145C1044.38 303.27 1049.7 304.833 1056.44 304.833C1061.42 304.833 1066.59 303.026 1071.97 299.413C1077.34 295.799 1083.24 290.624 1089.69 283.885V263.964Z" fill="#FE7F0F"/>
<path d="M1255.22 329.735V232.762C1255.22 216.454 1249.16 208.299 1237.05 208.299C1231 208.299 1225.19 210.741 1219.62 215.624C1214.15 220.507 1208.34 227.147 1202.19 235.546V329.735H1166.45V180.907H1197.36L1198.23 202.88C1201.26 199.071 1204.39 195.604 1207.61 192.479C1210.93 189.354 1214.49 186.717 1218.3 184.569C1222.11 182.323 1226.21 180.614 1230.61 179.442C1235 178.27 1239.93 177.684 1245.4 177.684C1253.02 177.684 1259.66 178.954 1265.32 181.493C1270.99 183.934 1275.73 187.45 1279.53 192.04C1283.34 196.532 1286.17 202.001 1288.03 208.446C1289.98 214.794 1290.96 221.923 1290.96 229.833V329.735H1255.22Z" fill="#FE7F0F"/>
<path d="M1424.7 329.735L1423.82 310.253C1420.7 313.573 1417.42 316.649 1414.01 319.481C1410.59 322.216 1406.83 324.608 1402.73 326.659C1398.63 328.71 1394.13 330.272 1389.25 331.346C1384.47 332.518 1379.19 333.104 1373.43 333.104C1365.81 333.104 1359.12 331.981 1353.36 329.735C1347.6 327.489 1342.77 324.364 1338.86 320.36C1334.95 316.356 1331.98 311.522 1329.92 305.858C1327.97 300.194 1326.99 293.944 1326.99 287.108C1326.99 280.077 1328.46 273.583 1331.39 267.626C1334.42 261.669 1338.96 256.542 1345.01 252.245C1351.16 247.948 1358.78 244.579 1367.86 242.137C1377.04 239.696 1387.79 238.475 1400.09 238.475H1419.57V229.54C1419.57 225.731 1419.04 222.313 1417.96 219.286C1416.89 216.161 1415.13 213.524 1412.69 211.376C1410.34 209.227 1407.27 207.567 1403.46 206.395C1399.65 205.223 1394.96 204.637 1389.4 204.637C1380.61 204.637 1371.92 205.663 1363.32 207.714C1354.83 209.667 1346.57 212.45 1338.57 216.063V187.499C1345.7 184.667 1353.9 182.323 1363.18 180.467C1372.55 178.612 1382.27 177.684 1392.33 177.684C1403.36 177.684 1412.83 178.758 1420.74 180.907C1428.65 182.958 1435.15 186.083 1440.23 190.282C1445.4 194.481 1449.21 199.755 1451.65 206.102C1454.09 212.352 1455.32 219.676 1455.32 228.075V329.735H1424.7ZM1419.57 263.964H1397.75C1391.69 263.964 1386.57 264.549 1382.37 265.721C1378.17 266.893 1374.75 268.505 1372.11 270.555C1369.48 272.606 1367.52 274.999 1366.25 277.733C1365.08 280.37 1364.49 283.202 1364.49 286.229C1364.49 292.284 1366.45 296.923 1370.35 300.145C1374.26 303.27 1379.58 304.833 1386.32 304.833C1391.3 304.833 1396.48 303.026 1401.85 299.413C1407.22 295.799 1413.13 290.624 1419.57 283.885V263.964Z" fill="#FE7F0F"/>
<path d="M1589.93 329.735L1589.06 307.762C1585.93 311.571 1582.71 315.038 1579.39 318.163C1576.07 321.288 1572.5 323.973 1568.69 326.219C1564.89 328.368 1560.78 330.028 1556.39 331.2C1552.09 332.469 1547.31 333.104 1542.03 333.104C1533.24 333.104 1525.43 331.346 1518.6 327.831C1511.76 324.315 1506 319.335 1501.31 312.889C1496.72 306.346 1493.21 298.436 1490.76 289.159C1488.32 279.882 1487.1 269.53 1487.1 258.104C1487.1 244.432 1489.01 232.616 1492.82 222.655C1496.72 212.596 1502.09 204.296 1508.93 197.753C1515.76 191.112 1523.87 186.229 1533.24 183.104C1542.62 179.882 1552.82 178.27 1563.86 178.27C1567.57 178.27 1571.28 178.514 1574.99 179.003C1578.8 179.491 1582.17 180.126 1585.1 180.907V122.753H1620.84V329.735H1589.93ZM1524.6 256.493C1524.6 264.696 1525.14 271.727 1526.21 277.587C1527.39 283.348 1529.05 288.085 1531.19 291.796C1533.44 295.507 1536.17 298.241 1539.4 299.999C1542.62 301.659 1546.28 302.489 1550.38 302.489C1556.44 302.489 1562.2 300.048 1567.67 295.165C1573.14 290.282 1578.95 283.592 1585.1 275.096V210.057C1582.27 208.983 1578.75 208.104 1574.55 207.421C1570.45 206.737 1566.3 206.395 1562.1 206.395C1556.34 206.395 1551.16 207.567 1546.57 209.911C1541.98 212.255 1538.03 215.575 1534.71 219.872C1531.49 224.169 1529 229.442 1527.24 235.692C1525.48 241.844 1524.6 248.778 1524.6 256.493Z" fill="#FE7F0F"/>
<path d="M1790.91 243.895C1790.91 246.337 1790.81 249.51 1790.62 253.417C1790.52 257.323 1790.32 260.985 1790.03 264.403H1692.18C1692.18 270.946 1693.16 276.708 1695.11 281.688C1697.16 286.669 1699.99 290.868 1703.61 294.286C1707.32 297.606 1711.71 300.145 1716.79 301.903C1721.97 303.661 1727.68 304.54 1733.93 304.54C1741.15 304.54 1748.87 304.003 1757.07 302.928C1765.37 301.757 1773.97 299.901 1782.85 297.362V325.78C1779.05 326.854 1774.9 327.831 1770.4 328.71C1765.91 329.589 1761.32 330.37 1756.63 331.053C1751.95 331.737 1747.21 332.225 1742.42 332.518C1737.64 332.909 1733 333.104 1728.51 333.104C1717.18 333.104 1707.02 331.493 1698.04 328.27C1689.06 325.048 1681.44 320.311 1675.19 314.061C1668.94 307.714 1664.15 299.901 1660.83 290.624C1657.51 281.346 1655.85 270.604 1655.85 258.397C1655.85 246.288 1657.51 235.301 1660.83 225.438C1664.15 215.477 1668.84 206.981 1674.9 199.95C1680.95 192.821 1688.27 187.352 1696.87 183.544C1705.56 179.637 1715.23 177.684 1725.87 177.684C1736.42 177.684 1745.74 179.344 1753.85 182.665C1761.96 185.887 1768.74 190.428 1774.21 196.288C1779.68 202.147 1783.83 209.13 1786.66 217.235C1789.49 225.341 1790.91 234.227 1790.91 243.895ZM1754.58 238.768C1754.68 232.909 1753.95 227.831 1752.39 223.534C1750.82 219.139 1748.67 215.526 1745.94 212.694C1743.3 209.862 1740.18 207.762 1736.57 206.395C1733.05 205.028 1729.24 204.344 1725.14 204.344C1716.15 204.344 1708.78 207.372 1703.02 213.426C1697.26 219.383 1693.84 227.831 1692.77 238.768H1754.58Z" fill="#FE7F0F"/>
<path d="M1909.42 329.735H1868.25L1809.22 180.907H1849.07L1879.97 265.282L1889.2 292.528L1898.28 266.454L1929.48 180.907H1967.86L1909.42 329.735Z" fill="#FE7F0F"/>
</svg>
